<svg width="32" height="32" viewBox="0 0 32 32" fill="none" xmlns="http://www.w3.org/2000/svg">
<path d="M2.66668 16C2.66668 8.63617 8.63622 2.66663 16 2.66663C23.3638 2.66663 29.3333 8.63617 29.3333 16C29.3333 23.3637 23.3638 29.3333 16 29.3333C13.6729 29.3333 11.4818 28.736 9.57529 27.6858L4.38822 29.2645C3.91716 29.408 3.4054 29.28 3.05721 28.9317C2.70902 28.5837 2.58108 28.0717 2.72446 27.6008L4.30489 22.4079C3.26046 20.5053 2.66668 18.3203 2.66668 16ZM10.6667 14.6666C10.6667 15.403 11.2636 16 12 16H20C20.7364 16 21.3333 15.403 21.3333 14.6666C21.3333 13.9303 20.7364 13.3333 20 13.3333H12C11.2636 13.3333 10.6667 13.9303 10.6667 14.6666ZM12 18.6666C11.2636 18.6666 10.6667 19.2636 10.6667 20C10.6667 20.7363 11.2636 21.3333 12 21.3333H17.3333C18.0697 21.3333 18.6667 20.7363 18.6667 20C18.6667 19.2636 18.0697 18.6666 17.3333 18.6666H12Z" fill="#27AE60"/>
</svg>
