<svg width="22" height="21" viewBox="0 0 22 21" fill="none" xmlns="http://www.w3.org/2000/svg">
<path d="M2.42857 11.7143L11.8571 11.7151C12.7604 11.7151 13.5012 12.4141 13.5667 13.3014L13.5714 13.4294V15.5714C13.5706 19.1714 9.89686 20.2857 7.14286 20.2857C4.44394 20.2857 0.860901 19.2156 0.718658 15.7844L0.714287 15.5714V13.4286C0.714287 12.5253 1.41406 11.7845 2.3007 11.719L2.42857 11.7143ZM13.76 11.7151L19.5714 11.7143C20.4747 11.7143 21.2155 12.414 21.281 13.3007L21.2857 13.4286V15.1428C21.2849 18.3648 18.3457 19.4286 16.1429 19.4286C15.236 19.4286 14.2066 19.2443 13.3066 18.8071C13.9514 18.0408 14.3699 17.0652 14.4229 15.8382L14.4286 15.5714V13.4294C14.4286 12.8279 14.2153 12.2802 13.8681 11.8429L13.76 11.7151L19.5714 11.7143L13.76 11.7151ZM7.14286 0.571411C9.746 0.571411 11.8571 2.68255 11.8571 5.2857C11.8571 7.88884 9.746 9.99998 7.14286 9.99998C4.53971 9.99998 2.42857 7.88884 2.42857 5.2857C2.42857 2.68255 4.53971 0.571411 7.14286 0.571411ZM16.5714 2.2857C18.7014 2.2857 20.4286 4.01284 20.4286 6.14284C20.4286 8.27284 18.7014 9.99998 16.5714 9.99998C14.4414 9.99998 12.7143 8.27284 12.7143 6.14284C12.7143 4.01284 14.4414 2.2857 16.5714 2.2857Z" fill="white"/>
</svg>
