<svg width="24" height="24" viewBox="0 0 24 24" fill="none" xmlns="http://www.w3.org/2000/svg">
<path d="M16.2857 11.9999C19.126 11.9999 21.4286 9.6974 21.4286 6.85709C21.4286 4.01677 19.126 1.71423 16.2857 1.71423C13.4454 1.71423 11.1429 4.01677 11.1429 6.85709C11.1429 7.68638 11.3391 8.46982 11.6877 9.16349L8.80902 11.1882C8.12145 10.1291 6.92825 9.42852 5.57142 9.42852C3.44118 9.42852 1.71428 11.1554 1.71428 13.2857C1.71428 15.4159 3.44118 17.1428 5.57142 17.1428C6.77243 17.1428 7.84524 16.5939 8.55265 15.7332L13.0112 18.3341C12.9113 18.633 12.8571 18.953 12.8571 19.2857C12.8571 20.9425 14.2003 22.2857 15.8571 22.2857C17.514 22.2857 18.8571 20.9425 18.8571 19.2857C18.8571 17.6288 17.514 16.2857 15.8571 16.2857C14.9955 16.2857 14.2186 16.6489 13.6714 17.2307L9.19234 14.6179C9.34517 14.2027 9.42857 13.7539 9.42857 13.2857C9.42857 12.9797 9.39291 12.6821 9.32562 12.3968L12.4044 10.2313C13.3473 11.3149 14.7365 11.9999 16.2857 11.9999Z" fill="#070928" fill-opacity="0.75"/>
</svg>
